<svg width="450" height="450" viewBox="0 0 450 450" fill="none" xmlns="http://www.w3.org/2000/svg">
<g opacity="0.3">
<path d="M278.571 225C278.571 254.587 254.587 278.571 225 278.571C195.413 278.571 171.429 254.587 171.429 225C171.429 195.413 195.413 171.429 225 171.429C254.587 171.429 278.571 195.413 278.571 225Z" fill="white" fill-opacity="0.06"/>
<path fill-rule="evenodd" clip-rule="evenodd" d="M225 450C338.351 450 432.125 366.181 447.721 257.143H315.942C302.704 294.595 266.986 321.429 225 321.429C183.014 321.429 147.296 294.595 134.058 257.143H2.27857C17.8752 366.181 111.649 450 225 450ZM134.058 192.857H2.27857C17.8752 83.8191 111.649 0 225 0C338.351 0 432.125 83.8191 447.721 192.857H315.942C302.704 155.405 266.986 128.571 225 128.571C183.014 128.571 147.296 155.405 134.058 192.857ZM278.571 225C278.571 254.587 254.587 278.571 225 278.571C195.413 278.571 171.429 254.587 171.429 225C171.429 195.413 195.413 171.429 225 171.429C254.587 171.429 278.571 195.413 278.571 225Z" fill="white" fill-opacity="0.06"/>
</g>
</svg>
